{
  "accessors": [
    {
      "bufferView": 2,
      "componentType": 5126,
      "count": 3955,
      "max": [
        0.24792060256004333,
        0.24792060256004333,
        0.2500694692134857
      ],
      "min": [
        -0.24792060256004333,
        -0.24792060256004333,
        -0.6100963354110718
      ],
      "type": "VEC3"
    },
    {
      "bufferView": 2,
      "byteOffset": 47460,
      "componentType": 5126,
      "count": 3955,
      "max": [
        1.0,
        1.0,
        1.0
      ],
      "min": [
        -1.0,
        -1.0,
        -1.0
      ],
      "type": "VEC3"
    },
    {
      "bufferView": 1,
      "componentType": 5126,
      "count": 3955,
      "max": [
        1.1375583410263062,
        0.9930429458618164
      ],
      "min": [
        0.0009999952744692564,
        -0.0047175586223602295
      ],
      "type": "VEC2"
    },
    {
      "bufferView": 0,
      "componentType": 5125,
      "count": 21120,
      "type": "SCALAR"
    },
    {
      "bufferView": 2,
      "byteOffset": 94920,
      "componentType": 5126,
      "count": 9708,
      "max": [
        0.22823834419250488,
        0.060155659914016724,
        -0.2317633032798767
      ],
      "min": [
        -0.22823837399482727,
        -0.24791640043258667,
        -0.6427399516105652
      ],
      "type": "VEC3"
    },
    {
      "bufferView": 2,
      "byteOffset": 211416,
      "componentType": 5126,
      "count": 9708,
      "max": [
        0.9999979138374329,
        1.0,
        0.9975127577781677
      ],
      "min": [
        -0.9999979138374329,
        -0.9999998807907104,
        -0.9999997615814209
      ],
      "type": "VEC3"
    },
    {
      "bufferView": 1,
      "byteOffset": 31640,
      "componentType": 5126,
      "count": 9708,
      "max": [
        0.9722222089767456,
        1.0
      ],
      "min": [
        -0.027777791023254395,
        0.0
      ],
      "type": "VEC2"
    },
    {
      "bufferView": 0,
      "byteOffset": 84480,
      "componentType": 5125,
      "count": 55716,
      "type": "SCALAR"
    }
  ],
  "asset": {
    "extras": {
      "author": "binrong (https://sketchfab.com/binrong)",
      "license": "CC-BY-NC-4.0 (http://creativecommons.org/licenses/by-nc/4.0/)",
      "source": "https://sketchfab.com/3d-models/day19-robot-7c6ee02a4bd84439a1d3e5206dbe7745",
      "title": "DAY19: ROBOT"
    },
    "generator": "Sketchfab-12.67.0",
    "version": "2.0"
  },
  "bufferViews": [
    {
      "buffer": 0,
      "byteLength": 307344,
      "name": "floatBufferViews",
      "target": 34963
    },
    {
      "buffer": 0,
      "byteLength": 109304,
      "byteOffset": 307344,
      "byteStride": 8,
      "name": "floatBufferViews",
      "target": 34962
    },
    {
      "buffer": 0,
      "byteLength": 327912,
      "byteOffset": 416648,
      "byteStride": 12,
      "name": "floatBufferViews",
      "target": 34962
    }
  ],
  "buffers": [
    {
      "byteLength": 744560,
      "uri": "scene.bin"
    }
  ],
  "images": [
    {
      "uri": "textures/Material_30_baseColor.png"
    }
  ],
  "materials": [
    {
      "doubleSided": true,
      "name": "Material_30",
      "pbrMetallicRoughness": {
        "baseColorTexture": {
          "index": 0
        },
        "metallicFactor": 0.0,
        "roughnessFactor": 0.0
      }
    },
    {
      "doubleSided": true,
      "name": "WHITE",
      "pbrMetallicRoughness": {
        "metallicFactor": 0.0,
        "roughnessFactor": 0.0
      }
    }
  ],
  "meshes": [
    {
      "name": "BAYMAX_Material #30_0",
      "primitives": [
        {
          "attributes": {
            "NORMAL": 1,
            "POSITION": 0,
            "TEXCOORD_0": 2
          },
          "indices": 3,
          "material": 0,
          "mode": 4
        }
      ]
    },
    {
      "name": "BAYMAX_WHITE_0",
      "primitives": [
        {
          "attributes": {
            "NORMAL": 5,
            "POSITION": 4,
            "TEXCOORD_0": 6
          },
          "indices": 7,
          "material": 1,
          "mode": 4
        }
      ]
    }
  ],
  "nodes": [
    {
      "children": [
        1
      ],
      "matrix": [
        1.0,
        2.8327693431939995e-16,
        -2.8327693431939985e-16,
        0.0,
        2.832769343193999e-16,
        -2.2204460492503128e-16,
        1.0,
        0.0,
        2.832769343193999e-16,
        -1.0,
        -2.2204460492503136e-16,
        0.0,
        7.74941634300308e-15,
        -54.71278762817383,
        -0.00011072363851176998,
        1.0
      ],
      "name": "Sketchfab_model"
    },
    {
      "children": [
        2
      ],
      "matrix": [
        1.0,
        0.0,
        0.0,
        0.0,
        0.0,
        -1.0,
        0.0,
        0.0,
        0.0,
        0.0,
        -1.0,
        0.0,
        0.0,
        0.0,
        0.0,
        1.0
      ],
      "name": "ROBOT.FBX"
    },
    {
      "children": [
        3
      ],
      "name": "RootNode"
    },
    {
      "children": [
        4,
        5
      ],
      "matrix": [
        97.12850189208984,
        0.0,
        0.0,
        0.0,
        0.0,
        86.40160369873047,
        0.0,
        0.0,
        0.0,
        0.0,
        76.79219818115234,
        0.0,
        0.0,
        -4.0486740216701144e-16,
        42.43341827392578,
        1.0
      ],
      "name": "BAYMAX"
    },
    {
      "mesh": 0,
      "name": "BAYMAX_Material #30_0"
    },
    {
      "mesh": 1,
      "name": "BAYMAX_WHITE_0"
    }
  ],
  "samplers": [
    {
      "magFilter": 9729,
      "minFilter": 9987,
      "wrapS": 10497,
      "wrapT": 10497
    }
  ],
  "scene": 0,
  "scenes": [
    {
      "name": "Sketchfab_Scene",
      "nodes": [
        0
      ]
    }
  ],
  "textures": [
    {
      "sampler": 0,
      "source": 0
    }
  ]
}
