{
  "accessors": [
    {
      "bufferView": 2,
      "componentType": 5126,
      "count": 8475,
      "max": [
        17.95180892944336,
        1.3794398307800293,
        0.4536283612251282
      ],
      "min": [
        -20.94683074951172,
        -1.442601203918457,
        -0.16014564037322998
      ],
      "type": "VEC3"
    },
    {
      "bufferView": 2,
      "byteOffset": 101700,
      "componentType": 5126,
      "count": 8475,
      "max": [
        1.0,
        1.0,
        0.9999967217445374
      ],
      "min": [
        -1.0,
        -1.0,
        -0.9999966025352478
      ],
      "type": "VEC3"
    },
    {
      "bufferView": 1,
      "componentType": 5126,
      "count": 8475,
      "max": [
        0.5249814987182617,
        0.714141845703125
      ],
      "min": [
        0.0,
        0.0
      ],
      "type": "VEC2"
    },
    {
      "bufferView": 0,
      "componentType": 5125,
      "count": 34608,
      "type": "SCALAR"
    },
    {
      "bufferView": 2,
      "byteOffset": 203400,
      "componentType": 5126,
      "count": 5715,
      "max": [
        20.68097686767578,
        15.784852981567383,
        6.9754133224487305
      ],
      "min": [
        -13.906570434570313,
        -14.915119171142578,
        -13.354959487915039
      ],
      "type": "VEC3"
    },
    {
      "bufferView": 2,
      "byteOffset": 271980,
      "componentType": 5126,
      "count": 5715,
      "max": [
        0.9999999403953552,
        1.0,
        1.0
      ],
      "min": [
        -1.0,
        -1.0,
        -1.0
      ],
      "type": "VEC3"
    },
    {
      "bufferView": 1,
      "byteOffset": 67800,
      "componentType": 5126,
      "count": 5715,
      "max": [
        0.8750001192092896,
        1.0000001192092896
      ],
      "min": [
        0.0,
        0.0
      ],
      "type": "VEC2"
    },
    {
      "bufferView": 0,
      "byteOffset": 138432,
      "componentType": 5125,
      "count": 28776,
      "type": "SCALAR"
    },
    {
      "bufferView": 2,
      "byteOffset": 340560,
      "componentType": 5126,
      "count": 1688,
      "max": [
        -3.3378350734710693,
        0.8299129605293274,
        6.9754133224487305
      ],
      "min": [
        -5.333889007568359,
        -1.1669021844863892,
        6.707796573638916
      ],
      "type": "VEC3"
    },
    {
      "bufferView": 2,
      "byteOffset": 360816,
      "componentType": 5126,
      "count": 1688,
      "max": [
        1.0,
        0.9972899556159973,
        1.0
      ],
      "min": [
        -1.0,
        -0.9972896575927734,
        -0.0003266626736149192
      ],
      "type": "VEC3"
    },
    {
      "bufferView": 1,
      "byteOffset": 113520,
      "componentType": 5126,
      "count": 1688,
      "max": [
        0.0,
        0.0
      ],
      "min": [
        0.0,
        0.0
      ],
      "type": "VEC2"
    },
    {
      "bufferView": 0,
      "byteOffset": 253536,
      "componentType": 5125,
      "count": 9216,
      "type": "SCALAR"
    }
  ],
  "asset": {
    "extras": {
      "author": "kangal9990 (https://sketchfab.com/kangal9990)",
      "license": "CC-BY-4.0 (http://creativecommons.org/licenses/by/4.0/)",
      "source": "https://sketchfab.com/3d-models/baymax-3d-model-09848c1567104556b7ce3440548a790d",
      "title": "Baymax! 3D Model"
    },
    "generator": "Sketchfab-13.66.0",
    "version": "2.0"
  },
  "bufferViews": [
    {
      "buffer": 0,
      "byteLength": 290400,
      "name": "floatBufferViews",
      "target": 34963
    },
    {
      "buffer": 0,
      "byteLength": 127024,
      "byteOffset": 290400,
      "byteStride": 8,
      "name": "floatBufferViews",
      "target": 34962
    },
    {
      "buffer": 0,
      "byteLength": 381072,
      "byteOffset": 417424,
      "byteStride": 12,
      "name": "floatBufferViews",
      "target": 34962
    }
  ],
  "buffers": [
    {
      "byteLength": 798496,
      "uri": "scene.bin"
    }
  ],
  "materials": [
    {
      "doubleSided": true,
      "name": "siyah",
      "pbrMetallicRoughness": {
        "baseColorFactor": [
          0.0,
          0.0,
          0.0,
          1.0
        ]
      }
    },
    {
      "doubleSided": true,
      "name": "neyaz",
      "pbrMetallicRoughness": {
        "baseColorFactor": [
          0.8,
          0.8,
          0.8,
          1.0
        ],
        "metallicFactor": 0.0,
        "roughnessFactor": 0.7985877019416087
      }
    },
    {
      "doubleSided": true,
      "name": "material",
      "pbrMetallicRoughness": {
        "baseColorFactor": [
          0.262894,
          0.259061,
          0.26676,
          1.0
        ],
        "metallicFactor": 0.0,
        "roughnessFactor": 0.9417656873090244
      }
    }
  ],
  "meshes": [
    {
      "name": "Plane.001_siyah_0",
      "primitives": [
        {
          "attributes": {
            "NORMAL": 1,
            "POSITION": 0,
            "TEXCOORD_0": 2
          },
          "indices": 3,
          "material": 0,
          "mode": 4
        }
      ]
    },
    {
      "name": "Circle_neyaz_0",
      "primitives": [
        {
          "attributes": {
            "NORMAL": 5,
            "POSITION": 4,
            "TEXCOORD_0": 6
          },
          "indices": 7,
          "material": 1,
          "mode": 4
        }
      ]
    },
    {
      "name": "Circle_gri_0",
      "primitives": [
        {
          "attributes": {
            "NORMAL": 9,
            "POSITION": 8,
            "TEXCOORD_0": 10
          },
          "indices": 11,
          "material": 2,
          "mode": 4
        }
      ]
    }
  ],
  "nodes": [
    {
      "children": [
        1
      ],
      "matrix": [
        1.0,
        0.0,
        0.0,
        0.0,
        0.0,
        2.220446049250313e-16,
        -1.0,
        0.0,
        0.0,
        1.0,
        2.220446049250313e-16,
        0.0,
        0.0,
        0.0,
        0.0,
        1.0
      ],
      "name": "Sketchfab_model"
    },
    {
      "children": [
        2
      ],
      "matrix": [
        0.009999999776482582,
        0.0,
        0.0,
        0.0,
        0.0,
        0.0,
        0.009999999776482582,
        0.0,
        0.0,
        -0.009999999776482582,
        0.0,
        0.0,
        0.0,
        0.0,
        0.0,
        1.0
      ],
      "name": "zcx.fbx"
    },
    {
      "children": [
        3,
        5
      ],
      "name": "RootNode"
    },
    {
      "children": [
        4
      ],
      "matrix": [
        -1.3768182318566947e-08,
        -0.31497928500175393,
        1.8774226156073688e-08,
        0.0,
        -2.7545505598459646e-06,
        -1.007753995348388e-06,
        -16.907310485839588,
        0.0,
        11.978383064269849,
        -5.235918881511608e-07,
        -1.9515263095062143e-06,
        0.0,
        129.8025665283203,
        195.06675720214844,
        -3.8901419639587402,
        1.0
      ],
      "name": "Plane.001"
    },
    {
      "mesh": 0,
      "name": "Plane.001_siyah_0"
    },
    {
      "children": [
        6,
        7
      ],
      "matrix": [
        4.619408025246202,
        -12.51504911076584,
        -1.6709862252763967,
        0.0,
        -5.443595244067873,
        -0.36863745865650094,
        -12.287756384161034,
        0.0,
        11.392363163148561,
        4.89849316596266,
        -5.193884059080307,
        0.0,
        99.10486602783203,
        36.48968505859375,
        -12.857037544250488,
        1.0
      ],
      "name": "Circle"
    },
    {
      "mesh": 1,
      "name": "Circle_neyaz_0"
    },
    {
      "mesh": 2,
      "name": "Circle_gri_0"
    }
  ],
  "scene": 0,
  "scenes": [
    {
      "name": "Sketchfab_Scene",
      "nodes": [
        0
      ]
    }
  ]
}
